<svg xmlns="http://www.w3.org/2000/svg" width="32" height="32" viewBox="0 0 32 32" fill="none">
  <circle cx="16" cy="16" r="15.5" fill="#7B4FFF" stroke="#222222"/>
  <path d="M16 7L16.7243 6.31048C16.5355 6.11222 16.2738 6 16 6C15.7263 6 15.4645 6.11221 15.2758 6.31046L16 7ZM15 25.0002V26.0002H17V25.0002H15ZM22.2757 15.0422C22.6565 15.4422 23.2895 15.4577 23.6895 15.0769C24.0895 14.6961 24.1051 14.0631 23.7243 13.6631L22.2757 15.0422ZM8.27575 13.6629C7.89493 14.0629 7.91047 14.6959 8.31046 15.0767C8.71046 15.4575 9.34343 15.442 9.72425 15.042L8.27575 13.6629ZM15 7V25.0002H17V7L15 7ZM15.2758 7.68952L22.2757 15.0422L23.7243 13.6631L16.7243 6.31048L15.2758 7.68952ZM15.2758 6.31046L8.27575 13.6629L9.72425 15.042L16.7243 7.68954L15.2758 6.31046Z" fill="#3C009D"/>
</svg>