<svg xmlns="http://www.w3.org/2000/svg" width="32" height="32" viewBox="0 0 32 32" fill="none">
<circle cx="16" cy="16" r="15.5" fill="#EAEAEA" fill-opacity="0.6" stroke="#A7A7A7"/>
<path d="M16 7.00023L16.7243 6.3107C16.5355 6.11245 16.2738 6.00023 16 6.00023C15.7263 6.00023 15.4645 6.11244 15.2758 6.31069L16 7.00023ZM15 25.0002V26.0002H17V25.0002H15ZM22.2757 15.0423C22.6566 15.4423 23.2895 15.4579 23.6895 15.0771C24.0895 14.6962 24.1051 14.0633 23.7243 13.6633L22.2757 15.0423ZM8.27575 13.663C7.89493 14.063 7.91047 14.696 8.31046 15.0768C8.71045 15.4576 9.34342 15.4421 9.72425 15.0421L8.27575 13.663ZM15 7.00023V25.0002H17V7.00023L15 7.00023ZM15.2758 7.68976L22.2757 15.0423L23.7243 13.6633L16.7243 6.3107L15.2758 7.68976ZM15.2758 6.31069L8.27575 13.663L9.72425 15.0421L16.7243 7.68977L15.2758 6.31069Z" fill="#A7A7A7"/>
</svg>