<svg xmlns="http://www.w3.org/2000/svg" width="17" height="16" viewBox="0 0 17 16" fill="none">
  <path d="M7.7093 2.08105H2.49096C2.09553 2.08105 1.7163 2.23814 1.43669 2.51775C1.15708 2.79735 1 3.17658 1 3.57201V14.0087C1 14.4041 1.15708 14.7834 1.43669 15.063C1.7163 15.3426 2.09553 15.4997 2.49096 15.4997H12.9276C13.3231 15.4997 13.7023 15.3426 13.9819 15.063C14.2615 14.7834 14.4186 14.4041 14.4186 14.0087V8.79036" stroke="#474747" stroke-linecap="round" stroke-linejoin="round"/>
  <path d="M13.3002 0.963181C13.5967 0.666611 13.999 0.5 14.4184 0.5C14.8378 0.5 15.24 0.666611 15.5366 0.963181C15.8332 1.25975 15.9998 1.66198 15.9998 2.0814C15.9998 2.50081 15.8332 2.90304 15.5366 3.19961L8.45457 10.2817L5.47266 11.0271L6.21813 8.04522L13.3002 0.963181Z" stroke="#474747" stroke-linecap="round" stroke-linejoin="round"/>
</svg>