<svg xmlns="http://www.w3.org/2000/svg" width="26" height="26" viewBox="0 0 26 26" fill="none">
<path d="M13.0001 24.9998C19.6275 24.9998 25.0001 19.6272 25.0001 12.9998C25.0001 6.37234 19.6275 0.999756 13.0001 0.999756C6.3727 0.999756 1.00012 6.37234 1.00012 12.9998C1.00012 19.6272 6.3727 24.9998 13.0001 24.9998Z" stroke="#222222" stroke-width="1.5" stroke-miterlimit="10"/>
<path d="M12.1875 15.444V15.3293C12.1955 14.5807 12.27 13.9851 12.4109 13.5424C12.5558 13.0997 12.761 12.7415 13.0266 12.4678C13.2923 12.1941 13.6122 11.9446 13.9865 11.7192C14.228 11.5663 14.4453 11.3952 14.6385 11.2061C14.8317 11.0169 14.9846 10.7996 15.0973 10.5541C15.21 10.3086 15.2663 10.0369 15.2663 9.7391C15.2663 9.38091 15.1818 9.07102 15.0128 8.80942C14.8438 8.54781 14.6184 8.34658 14.3366 8.20572C14.0589 8.06083 13.7491 7.98839 13.407 7.98839C13.0971 7.98839 12.8013 8.05279 12.5195 8.18157C12.2378 8.31036 12.0044 8.51159 11.8192 8.78527C11.6341 9.05492 11.5275 9.40305 11.4993 9.82966H9.66406C9.69223 9.10522 9.87536 8.49348 10.2134 7.99443C10.5515 7.49135 10.9982 7.11102 11.5536 6.85345C12.113 6.59587 12.7308 6.46708 13.407 6.46708C14.1475 6.46708 14.7955 6.60593 15.3509 6.88363C15.9063 7.15731 16.3369 7.54166 16.6428 8.03669C16.9527 8.52769 17.1076 9.1012 17.1076 9.75721C17.1076 10.208 17.0372 10.6145 16.8963 10.9767C16.7554 11.3349 16.5542 11.6548 16.2926 11.9365C16.035 12.2183 15.7251 12.4678 15.3629 12.6851C15.0208 12.8984 14.7431 13.1198 14.5298 13.3492C14.3205 13.5786 14.1676 13.8503 14.071 14.1642C13.9744 14.4781 13.9221 14.8665 13.9141 15.3293V15.444H12.1875ZM13.0991 19.1145C12.7691 19.1145 12.4853 18.9977 12.2479 18.7643C12.0104 18.5269 11.8917 18.2411 11.8917 17.9071C11.8917 17.5771 12.0104 17.2953 12.2479 17.0619C12.4853 16.8244 12.7691 16.7057 13.0991 16.7057C13.4251 16.7057 13.7068 16.8244 13.9442 17.0619C14.1857 17.2953 14.3065 17.5771 14.3065 17.9071C14.3065 18.1284 14.2501 18.3317 14.1374 18.5168C14.0288 18.6979 13.8839 18.8428 13.7028 18.9515C13.5217 19.0601 13.3204 19.1145 13.0991 19.1145Z" fill="#222222"/>
</svg>