<svg xmlns="http://www.w3.org/2000/svg" width="current" height="current" viewBox="0 0 20 20" fill="none">
<path d="M1 18.9998L5.63 14.3688L1 18.9998ZM5.635 14.3638L2.855 11.5838C1.901 10.6308 2.861 8.58781 4.165 8.50581C5.343 8.43081 8.07 8.85781 8.977 7.95081L11.467 5.46081C12.084 4.84281 11.692 3.46081 11.652 2.69881C11.594 1.68281 13.21 0.427807 14.067 1.28481L18.714 5.93281C19.574 6.79081 18.314 8.40181 17.301 8.34781C16.539 8.30781 15.156 7.91581 14.538 8.53281L12.048 11.0228C11.142 11.9298 11.568 14.6558 11.494 15.8338C11.412 17.1388 9.369 18.0988 8.414 17.1438L5.635 14.3638Z" fill="#6314E4"/>
<path d="M1 18.9998L5.63 14.3688M5.635 14.3638L2.855 11.5838C1.901 10.6308 2.861 8.58781 4.165 8.50581C5.343 8.43081 8.07 8.85781 8.977 7.95081L11.467 5.46081C12.084 4.84281 11.692 3.46081 11.652 2.69881C11.594 1.68281 13.21 0.427807 14.067 1.28481L18.714 5.93281C19.574 6.79081 18.314 8.40181 17.301 8.34781C16.539 8.30781 15.156 7.91581 14.538 8.53281L12.048 11.0228C11.142 11.9298 11.568 14.6558 11.494 15.8338C11.412 17.1388 9.369 18.0988 8.414 17.1438L5.635 14.3638Z" stroke="#6314E4" stroke-width="1.5" stroke-linecap="round" stroke-linejoin="round"/>
</svg>