<svg xmlns="http://www.w3.org/2000/svg" width="26" height="26" viewBox="0 0 26 26" fill="none">
  <path d="M13.0001 24.9999C19.6275 24.9999 25.0001 19.6273 25.0001 12.9999C25.0001 6.37246 19.6275 0.999878 13.0001 0.999878C6.3727 0.999878 1.00012 6.37246 1.00012 12.9999C1.00012 19.6273 6.3727 24.9999 13.0001 24.9999Z" stroke="#222222" stroke-width="1.5" stroke-miterlimit="10"/>
  <path d="M13.1985 15.2002C15.5537 15.2002 17.463 13.275 17.463 10.9002C17.463 8.52539 15.5537 6.60022 13.1985 6.60022C10.8433 6.60022 8.93408 8.52539 8.93408 10.9002C8.93408 13.275 10.8433 15.2002 13.1985 15.2002Z" stroke="#222222" stroke-width="1.5" stroke-miterlimit="10"/>
  <path d="M4.96729 21.6003C5.79005 19.1585 8.10426 17.4003 10.8294 17.4003H15.1713C17.8974 17.4003 20.2106 19.1585 21.0334 21.6003" stroke="#222222" stroke-width="1.5" stroke-miterlimit="10"/>
</svg>